<?xml version="1.0" encoding="UTF-8"?>
<!DOCTYPE svg PUBLIC "-//W3C//DTD SVG 1.1//EN" "http://www.w3.org/Graphics/SVG/1.1/DTD/svg11.dtd">
<svg xmlns="http://www.w3.org/2000/svg" version="1.1" width="512px" height="512px" style="shape-rendering:geometricPrecision; text-rendering:geometricPrecision; image-rendering:optimizeQuality; fill-rule:evenodd; clip-rule:evenodd" xmlns:xlink="http://www.w3.org/1999/xlink">
<g><path style="opacity:0.965" fill="#000000" d="M 137.5,99.5 C 171.326,99.6088 202.16,109.275 230,128.5C 255.177,114.449 281.677,111.615 309.5,120C 346.223,133.725 373.056,158.225 390,193.5C 403.506,224.417 402.339,254.751 386.5,284.5C 397.733,303.639 406.233,323.973 412,345.5C 416.809,361.646 416.476,377.646 411,393.5C 402.013,411.103 387.513,420.936 367.5,423C 354.649,424.224 341.982,423.224 329.5,420C 294.744,408.46 263.077,391.46 234.5,369C 186.803,331.644 147.303,287.144 116,235.5C 104.035,215.236 95.7018,193.569 91,170.5C 86.9964,150.81 90.6631,132.81 102,116.5C 112.032,106.899 123.866,101.232 137.5,99.5 Z M 141.5,131.5 C 163.767,133.644 184.6,140.311 204,151.5C 198.631,169.732 199.631,187.732 207,205.5C 225.741,245.575 254.241,276.742 292.5,299C 310.509,309.668 329.842,313.668 350.5,311C 354.011,310.33 357.344,309.163 360.5,307.5C 372.585,326.087 379.919,346.42 382.5,368.5C 381.965,383.533 374.132,390.866 359,390.5C 335.938,387.59 314.438,380.09 294.5,368C 240.253,334.088 194.753,290.921 158,238.5C 145.305,219.445 134.972,199.112 127,177.5C 122.816,166.747 121.816,155.747 124,144.5C 127.442,136.885 133.275,132.551 141.5,131.5 Z M 268.5,147.5 C 299.243,145.789 324.41,156.789 344,180.5C 356.858,196.731 364.024,215.231 365.5,236C 365.248,251.435 359.914,264.768 349.5,276C 339.431,280.499 329.431,280.166 319.5,275C 284.771,256.938 257.938,230.771 239,196.5C 233.777,186.965 232.444,176.965 235,166.5C 237.857,161.979 241.69,158.479 246.5,156C 253.607,152.248 260.94,149.415 268.5,147.5 Z"/></g>
</svg>
